<svg width="76" height="86" viewBox="0 0 76 86" fill="none" xmlns="http://www.w3.org/2000/svg">
<circle cx="38" cy="38" r="38" fill="#CC9C6B" fill-opacity="0.3"/>
<path d="M60.162 53.1455C59.6902 52.0161 59.1302 50.9261 58.4871 49.8857V31.0417C58.4897 28.4082 57.9742 25.8001 56.9703 23.368C55.9664 20.9358 54.4939 18.7276 52.6377 16.8705C50.7925 15.0032 48.5973 13.5228 46.1793 12.5151C43.7613 11.5074 41.1685 10.9925 38.5513 11.0001C35.9324 10.9938 33.3383 11.5093 30.9186 12.5169C28.4989 13.5244 26.3014 15.0041 24.4531 16.8705C22.5978 18.7275 21.1268 20.936 20.1252 23.3684C19.1236 25.8008 18.6112 28.4088 18.6178 31.0417V33.7883H26.6009V31.0417C26.6009 27.8451 27.8379 24.8173 30.1068 22.5465C31.2135 21.428 32.5296 20.5415 33.9791 19.9381C35.4286 19.3347 36.9826 19.0265 38.5513 19.0312C41.7167 19.0368 44.7511 20.3037 46.9903 22.5546C49.2296 24.8055 50.4912 27.8572 50.4992 31.0417V42.0163C46.8711 39.8406 42.7238 38.6968 38.5 38.7073C35.4124 38.701 32.3542 39.3093 29.5012 40.497C26.6483 41.6847 24.0571 43.4283 21.8767 45.6276C19.6914 47.8216 17.9589 50.4285 16.7787 53.2985C15.5985 56.1685 14.9941 59.2449 15 62.3508C14.9949 65.4541 15.5999 68.5278 16.78 71.395C17.9602 74.2622 19.6923 76.8664 21.8767 79.0576C24.0574 81.2572 26.6479 83.0026 29.4999 84.1939C32.352 85.3852 35.4095 85.9989 38.4976 86C41.5857 86.0011 44.6436 85.3895 47.4965 84.2002C50.3493 83.011 52.9411 81.2674 55.1233 79.0693C57.3084 76.8757 59.0409 74.2692 60.221 71.3996C61.4012 68.53 62.0058 65.454 62 62.3485C62 59.1613 61.3826 56.0609 60.1573 53.1432L60.162 53.1455ZM38.5047 77.9609C29.9508 77.9609 22.9879 70.9561 22.9879 62.3508C22.9879 53.7455 29.9508 46.7408 38.5047 46.7408C42.619 46.7439 46.564 48.3895 49.4733 51.3163C52.3826 54.2431 54.0183 58.2117 54.0214 62.3508C54.0159 66.4891 52.3793 70.4564 49.4706 73.3826C46.5618 76.3089 42.6183 77.9553 38.5047 77.9609ZM45.167 62.4235C45.167 71.2467 32.0007 71.2467 32.0007 62.4235C32.0007 53.5861 45.167 53.5861 45.167 62.4235Z" fill="#485B47"/>
</svg>
