<svg width="76" height="85" viewBox="0 0 76 85" fill="none" xmlns="http://www.w3.org/2000/svg">
<circle cx="38" cy="38" r="38" fill="#CC9C6B" fill-opacity="0.3"/>
<path d="M11.9596 31.9719C6.22229 37.8013 3 45.7012 3 53.9375C3 62.1738 6.22229 70.0737 11.9596 75.9031C17.9543 81.9825 25.7867 85 33.6191 85C41.4515 85 49.284 81.9825 55.2786 75.9031C70.5059 60.4606 73 14 73 14C73 14 27.1869 16.5294 11.9596 31.9719ZM49.1089 69.6463C44.9521 73.8175 39.4825 76.125 33.6191 76.125C29.7248 76.125 26.0492 75.0156 22.7675 73.1075C26.7931 60.3275 34.2317 49.1006 44.1207 40.625C32.6127 46.66 22.9425 55.9787 16.2478 67.25C9.77181 58.5525 10.3406 46.1719 18.1731 38.2288C25.7867 30.5075 46.9211 25.7594 63.3736 23.7625C61.4045 40.4475 56.7226 61.8806 49.1089 69.6463Z" fill="#485B47"/>
</svg>
