<svg width="25" height="32" viewBox="0 0 25 32" fill="none" xmlns="http://www.w3.org/2000/svg">
<path fill-rule="evenodd" clip-rule="evenodd" d="M2.91365 20.5125L12.5 31.8181L22.0898 20.5079C22.1409 20.4477 22.4818 20 22.4818 20L22.4829 19.9966C24.1197 17.8405 25.004 15.207 25 12.5C25 9.18478 23.683 6.00536 21.3388 3.66116C18.9946 1.31696 15.8152 0 12.5 0C9.1848 0 6.00538 1.31696 3.66117 3.66116C1.31697 6.00536 1.32987e-05 9.18478 1.32987e-05 12.5C-0.00395589 15.2082 0.880672 17.8429 2.51819 20C2.64862 20.1719 2.78044 20.3427 2.91365 20.5125ZM4.45515 18.7914C4.38895 18.7044 4.33287 18.6307 4.33183 18.6307H4.33296C2.99407 16.8675 2.27035 14.7139 2.27274 12.5C2.27274 9.78755 3.35025 7.1862 5.26823 5.26822C7.18622 3.35024 9.78756 2.27272 12.5 2.27272C15.2124 2.27272 17.8138 3.35024 19.7318 5.26822C21.6497 7.1862 22.7273 9.78755 22.7273 12.5C22.7299 14.7125 22.007 16.8649 20.6693 18.6273C20.669 18.6275 20.6532 18.6485 20.6286 18.6809C20.5518 18.7823 20.3901 18.9958 20.3523 19.0432L12.5 28.3045L4.65796 19.0557C4.62537 19.0151 4.53322 18.894 4.45515 18.7914ZM9.34335 17.2243C10.2777 17.8487 11.3762 18.1819 12.5 18.1819C14.0064 18.1801 15.4505 17.5809 16.5157 16.5157C17.5808 15.4506 18.18 14.0064 18.1818 12.5001C18.1818 11.3763 17.8486 10.2778 17.2243 9.34343C16.5999 8.40906 15.7125 7.68081 14.6743 7.25076C13.6361 6.82072 12.4937 6.7082 11.3915 6.92744C10.2894 7.14667 9.27696 7.68781 8.48235 8.48243C7.68773 9.27704 7.14659 10.2894 6.92736 11.3916C6.70812 12.4938 6.82064 13.6362 7.25068 14.6744C7.68073 15.7126 8.40898 16.6 9.34335 17.2243ZM10.606 9.66552C11.1666 9.29093 11.8257 9.09099 12.5 9.09099C13.4039 9.09189 14.2705 9.45135 14.9096 10.0905C15.5487 10.7296 15.9082 11.5962 15.9091 12.5001C15.9091 13.1743 15.7091 13.8334 15.3345 14.3941C14.96 14.9547 14.4275 15.3916 13.8046 15.6497C13.1817 15.9077 12.4962 15.9752 11.8349 15.8437C11.1736 15.7121 10.5662 15.3874 10.0894 14.9107C9.61264 14.4339 9.28795 13.8265 9.15641 13.1652C9.02487 12.5039 9.09238 11.8184 9.35041 11.1955C9.60843 10.5725 10.0454 10.0401 10.606 9.66552Z" fill="white"/>
</svg>
