<svg width="82" height="83" viewBox="0 0 82 83" fill="none" xmlns="http://www.w3.org/2000/svg">
<circle cx="41" cy="38" r="38" fill="#CC9C6B" fill-opacity="0.3"/>
<path d="M70.9808 17H0V71.6006H70.9808V17ZM65.5208 66.1406H5.46006V22.4601H65.5208V66.1406Z" fill="#485B47"/>
<path d="M76.4409 30.6501V77.0607H13.6501V82.5207H81.9009V30.6501H76.4409Z" fill="#485B47"/>
<path d="M35.4905 57.6877C42.2644 57.6877 47.7756 51.6924 47.7756 44.3232C47.7756 36.954 42.2644 30.9586 35.4905 30.9586C28.7166 30.9586 23.2053 36.9538 23.2053 44.3232C23.2053 51.6926 28.7166 57.6877 35.4905 57.6877ZM35.4905 36.4187C39.2538 36.4187 42.3155 39.9647 42.3155 44.3232C42.3155 48.6817 39.2538 52.2276 35.4905 52.2276C31.7271 52.2276 28.6654 48.6817 28.6654 44.3232C28.6654 39.9647 31.7271 36.4187 35.4905 36.4187Z" fill="#485B47"/>
<path d="M10.9202 29.2852H16.3802V59.3155H10.9202V29.2852Z" fill="#485B47"/>
<path d="M54.6006 29.2852H60.0606V59.3155H54.6006V29.2852Z" fill="#485B47"/>
</svg>
