<svg width="76" height="87" viewBox="0 0 76 87" fill="none" xmlns="http://www.w3.org/2000/svg">
<circle cx="38" cy="38" r="38" fill="#CC9C6B" fill-opacity="0.3"/>
<path d="M71.8464 73.0963L53.296 54.5459H49.8309L40.9407 63.4361V66.9012L59.4911 85.4516C60.8561 86.8167 63.0612 86.8167 64.4262 85.4516L71.8464 78.0315C72.1708 77.7077 72.4283 77.323 72.6039 76.8996C72.7795 76.4762 72.8699 76.0223 72.8699 75.5639C72.8699 75.1055 72.7795 74.6516 72.6039 74.2282C72.4283 73.8048 72.1708 73.4202 71.8464 73.0963ZM61.9411 78.0665L47.1008 63.2261L49.5859 60.7411L64.4262 75.5814L61.9411 78.0665Z" fill="#485B47"/>
<path d="M56.6912 45.1657L61.6263 40.2306L69.0465 47.6508C71.0128 45.682 72.1173 43.0132 72.1173 40.2306C72.1173 37.448 71.0128 34.7792 69.0465 32.8104L56.6562 20.4202L51.7211 25.3553V15.4851L49.271 13L36.8808 25.3903L39.3658 27.8753H49.271L44.3359 32.8104L48.046 36.5205L37.9308 46.6358L23.4755 32.1804V27.2103L12.9052 16.6401L3 26.5453L13.6052 37.1505H18.5404L32.9957 51.6059L30.0206 54.5809H22.6004L4.05002 73.1314C3.72555 73.4552 3.46813 73.8398 3.29249 74.2632C3.11685 74.6866 3.02645 75.1405 3.02645 75.5989C3.02645 76.0573 3.11685 76.5112 3.29249 76.9346C3.46813 77.358 3.72555 77.7427 4.05002 78.0665L11.4702 85.4866C12.8352 86.8517 15.0403 86.8517 16.4053 85.4866L34.9557 66.9362V59.5161L52.9811 41.4906L56.6912 45.1657ZM28.7606 63.1911L13.9202 78.0315L11.4352 75.5464L26.2755 60.7061L28.7606 63.1911Z" fill="#485B47"/>
</svg>
